<?xml version="1.0"?>
<!--Icons from directory ""-->
<svg xmlns="http://www.w3.org/2000/svg" width="26" height="585" viewBox="0 0 26 585">
  <svg width="20" height="20" id="icon_alert" y="0">
    <g fill-rule="nonzero" fill="none">
      <path d="M8.333 20a3.129 3.129 0 0 1-3.125-3.125.625.625 0 0 1 1.25 0c0 1.034.842 1.875 1.875 1.875 1.034 0 1.875-.84 1.875-1.875a.625.625 0 0 1 1.25 0A3.129 3.129 0 0 1 8.333 20z" fill="#848484"/>
      <path
        d="M1.458 17.5a1.46 1.46 0 0 1-.948-2.567.576.576 0 0 1 .067-.05A5.6 5.6 0 0 0 2.5 10.658V8.333a5.796 5.796 0 0 1 4.473-5.666.626.626 0 0 1 .288 1.216 4.55 4.55 0 0 0-3.511 4.45v2.325a6.854 6.854 0 0 1-2.42 5.226c-.012.01-.022.02-.036.028a.206.206 0 0 0-.044.13.21.21 0 0 0 .208.208h13.75a.21.21 0 0 0 .209-.208.2.2 0 0 0-.045-.13 6.796 6.796 0 0 1-1.787-2.312.624.624 0 1 1 1.13-.534 5.57 5.57 0 0 0 1.377 1.82.72.72 0 0 1 .063.047 1.46 1.46 0 0 1-.947 2.567H1.458z"
        fill="#848484"/>
      <path d="M14.583 10.833a5.423 5.423 0 0 1-5.416-5.416A5.423 5.423 0 0 1 14.583 0 5.423 5.423 0 0 1 20 5.417a5.423 5.423 0 0 1-5.417 5.416z" fill="#24B54F"/>
    </g>
  </svg>
  <svg width="20" height="20" id="icon_alert_selected" y="20">
    <defs>
      <linearGradient x1="0%" y1="0%" y2="100%" id="icon_alert_selected-a"><stop stop-color="#24B54F" offset="0%"/><stop stop-color="#44A0A3" offset="100%"/></linearGradient>
    </defs>
    <g fill-rule="nonzero" fill="none"><path d="M8.333 20a3.13 3.13 0 0 0 3.062-2.5H5.272A3.13 3.13 0 0 0 8.333 20z" fill="#24B54F"/><path
      d="M14.647 12.08c-.022 0-.042.003-.064.003a6.674 6.674 0 0 1-6.666-6.666c0-1.445.466-2.779 1.25-3.872V.833a.833.833 0 1 0-1.667 0v.9c-2.823.407-5 2.835-5 5.767v2.323c0 1.65-.723 3.206-1.99 4.278a1.46 1.46 0 0 0 .948 2.566h13.75a1.46 1.46 0 0 0 .94-2.573 5.591 5.591 0 0 1-1.501-2.014z"
      fill="url(#icon_alert_selected-a)"/><path d="M14.583 0a5.423 5.423 0 0 0-5.416 5.417 5.423 5.423 0 0 0 5.416 5.416A5.423 5.423 0 0 0 20 5.417 5.423 5.423 0 0 0 14.583 0z" fill="url(#icon_alert_selected-a)"/></g>
  </svg>
  <svg width="24" height="20" id="icon_archive" y="40">
    <g fill-rule="nonzero" fill="#848484"><path
      d="M19.384 17.389l2.873-8.482a.737.737 0 0 0-.117-.672.779.779 0 0 0-.629-.31H6.117a.768.768 0 0 0-.739.534l-3.037 9.57c.288.316.707.516 1.173.516h14.345c.665 0 1.258-.413 1.479-1.016a.457.457 0 0 1 .018-.062l.023-.065a.464.464 0 0 1 .005-.013zm.892.303a.461.461 0 0 1-.004.012c-.297 1.03-1.292 1.764-2.413 1.764H3.514C2.127 19.468 1 18.366 1 17.012V3.456C1 2.102 2.127 1 3.514 1h2.06C6.96 1 8.088 2.102 8.088 3.456v.167c0 .845.703 1.532 1.568 1.532h8.203c1.157 0 2.153.783 2.435 1.847h1.217c.555 0 1.062.25 1.39.686.328.435.421.981.257 1.497l-.003.008-2.88 8.5zm-.979-10.69a1.58 1.58 0 0 0-1.438-.923H9.656c-1.386 0-2.514-1.102-2.514-2.456v-.167c0-.845-.703-1.533-1.568-1.533h-2.06c-.865 0-1.569.688-1.569 1.533V16.16l2.53-7.973a1.706 1.706 0 0 1 1.642-1.184h13.18z"
      stroke="#848484"
      stroke-width=".3"/><path
      d="M15.309 12.75h-2.06v-1.955c0-.31-.264-.561-.59-.561a.575.575 0 0 0-.588.56v1.957h-2.062c-.326 0-.59.251-.59.561 0 .155.065.297.172.398a.604.604 0 0 0 .417.166h2.063v1.954c0 .154.064.295.171.396a.603.603 0 0 0 .417.164c.326 0 .59-.251.59-.56v-1.955h2.06c.325 0 .59-.253.59-.562a.578.578 0 0 0-.59-.563z"/></g>
  </svg>
  <svg width="22" height="18" id="icon_archive_selected" y="60">
    <defs>
      <linearGradient x1="0%" y1="16.529%" y2="83.471%" id="icon_archive_selected-a"><stop stop-color="#24B54F" offset="0%"/><stop stop-color="#44A0A3" offset="100%"/></linearGradient>
    </defs><path
      d="M20.763 9.5H6.51c-.82 0-1.533.515-1.775 1.282L2 19.416V5.66C2 4.745 2.76 4 3.696 4h2.228c.935 0 1.696.745 1.696 1.66v.18c0 1.467 1.22 2.66 2.718 2.66h8.87c.687 0 1.29.41 1.555 1zm.646 1h1.748c.271 0 .519.122.68.335a.799.799 0 0 1 .125.728l-3.121 9.231c-.205.71-.876 1.206-1.634 1.206H3.697c-.505 0-.958-.216-1.269-.559l3.284-10.364a.831.831 0 0 1 .8-.577h14.897zm-5.412 4.971H13.77v-2.117c0-.336-.284-.607-.636-.607-.353 0-.637.271-.637.607v2.119h-2.229c-.352 0-.639.272-.639.607 0 .168.071.321.187.43.115.11.274.18.45.18h2.231v2.116c0 .168.07.32.185.43.116.11.275.177.451.177.352 0 .637-.272.637-.607V16.69h2.228c.353 0 .638-.274.638-.61 0-.334-.286-.609-.638-.609z"
      transform="translate(-2 -4)"
      fill="url(#icon_archive_selected-a)"
      fill-rule="nonzero"/></svg>
  <svg width="25" height="22" id="icon_content" y="78">
    <g fill-rule="nonzero" fill="#848484"><path
      d="M16.89 19.748a.352.352 0 0 1-.25-.105l-2.4-2.416a.358.358 0 0 1 0-.505l6.719-6.767a.354.354 0 0 1 .5 0l2.4 2.417a.359.359 0 0 1 0 .505l-6.719 6.766a.352.352 0 0 1-.25.105zm-1.899-2.774l1.899 1.913 6.218-6.263-1.899-1.912-6.218 6.262z"
      stroke="#848484"
      stroke-width=".4"/><path
      d="M13.29 20.956a.354.354 0 0 1-.25-.104.36.36 0 0 1-.086-.365l1.2-3.625a.353.353 0 0 1 .587-.14l2.4 2.417a.359.359 0 0 1-.14.59l-3.599 1.21a.351.351 0 0 1-.112.017zm1.355-3.321l-.795 2.4 2.384-.8-1.59-1.6zM22.289 14.31a.352.352 0 0 1-.25-.104l-2.4-2.417a.359.359 0 0 1 0-.505.353.353 0 0 1 .5 0l2.4 2.417a.359.359 0 0 1 0 .505.353.353 0 0 1-.25.104z"
      stroke="#848484"
      stroke-width=".4"/><path
      d="M14.885 16.933H3.38A2.39 2.39 0 0 1 1 14.538V3.396A2.39 2.39 0 0 1 3.379 1h13.158a2.39 2.39 0 0 1 2.379 2.396v9.478a.355.355 0 0 1-.354.357.356.356 0 0 1-.355-.357V3.396c0-.928-.749-1.682-1.67-1.682H3.38c-.921 0-1.67.754-1.67 1.682v11.142c0 .927.749 1.682 1.67 1.682h11.506c.196 0 .354.16.354.357a.356.356 0 0 1-.354.356z"
      stroke="#848484"
      stroke-width=".4"/><path d="M18.562 6.574H1.354A.356.356 0 0 1 1 6.217c0-.197.159-.357.354-.357h17.208c.195 0 .354.16.354.357a.355.355 0 0 1-.354.357z" stroke="#848484" stroke-width=".4"/><path
      d="M6.799 4.444a.995.995 0 0 1-.99-.997c0-.55.444-.998.99-.998s.99.448.99.998-.444.997-.99.997zm0-1.281a.283.283 0 0 0-.282.284c0 .156.127.283.282.283a.283.283 0 0 0 0-.567zM3.942 4.435a.995.995 0 0 1-.99-.998c0-.55.444-.997.99-.997s.99.448.99.997c0 .55-.444.998-.99.998zm0-1.281a.283.283 0 0 0-.281.283c0 .157.126.284.281.284a.283.283 0 0 0 0-.567zM9.655 4.453a.995.995 0 0 1-.99-.997c0-.55.444-.998.99-.998s.99.448.99.998-.444.997-.99.997zm0-1.281a.283.283 0 0 0-.281.284c0 .156.126.283.281.283a.283.283 0 0 0 .282-.283.283.283 0 0 0-.282-.284z"/></g>
  </svg>
  <svg width="22" height="20" id="icon_content_selected" y="100">
    <defs>
      <linearGradient x1="0%" y1="8.678%" y2="91.322%" id="icon_content_selected-a"><stop stop-color="#24B54F" offset="0%"/><stop stop-color="#44A0A3" offset="100%"/></linearGradient>
    </defs><path
      d="M19.493 4.847v1.92H2v-1.92C2 3.828 2.794 3 3.77 3h13.953c.976 0 1.77.828 1.77 1.847zM3.771 18.927c-.977 0-1.766-.829-1.771-1.847V7.55h17.493v7.543l-3.675 3.834H3.77zM3.89 5.88a.957.957 0 0 0 .946-.969.957.957 0 0 0-.946-.968.957.957 0 0 0-.945.968c0 .535.423.969.945.969zm2.837 0a.957.957 0 0 0 .945-.969.957.957 0 0 0-.945-.968.957.957 0 0 0-.946.968c0 .535.423.969.946.969zm2.836 0a.957.957 0 0 0 .946-.969.957.957 0 0 0-.946-.968.957.957 0 0 0-.945.968c0 .535.423.969.945.969zm6.773 14.135a.384.384 0 0 1-.005-.527l5.527-5.953a.384.384 0 0 1 .558-.004l1.48 1.543c.14.147.143.378.004.527l-5.526 5.953a.384.384 0 0 1-.558.005l-1.48-1.544zm-.616.492a.192.192 0 0 1 .32-.074l.723.741.733.751a.192.192 0 0 1-.075.316l-2.185.746a.192.192 0 0 1-.245-.24l.729-2.24z"
      transform="translate(-2 -3)"
      fill="url(#icon_content_selected-a)"
      fill-rule="nonzero"/></svg>
  <svg width="20" height="22" id="icon_delete" y="120">
    <g stroke-width=".2" fill-rule="nonzero" fill="#848484" stroke="#848484"><path
      d="M1.832 6.59v12.464c0 .736.3 1.428.822 1.924a2.91 2.91 0 0 0 2.003.782h10.606a2.908 2.908 0 0 0 2.003-.782 2.646 2.646 0 0 0 .822-1.924V6.59c1.04-.25 1.713-1.156 1.574-2.118-.14-.962-1.048-1.682-2.123-1.682h-2.87v-.633A1.894 1.894 0 0 0 14.022.74a2.331 2.331 0 0 0-1.573-.58H7.47a2.331 2.331 0 0 0-1.573.58c-.417.376-.65.887-.647 1.418v.633h-2.87c-1.075 0-1.984.72-2.123 1.682-.139.962.535 1.869 1.574 2.118zm13.43 14.158H4.658a1.679 1.679 0 0 1-1.704-1.694V6.635h14.014v12.419c0 .951-.746 1.694-1.704 1.694zm-8.89-18.59a.927.927 0 0 1 .319-.703c.207-.186.488-.288.78-.283h4.978c.292-.005.573.097.78.283.207.186.322.44.319.703v.633H6.372v-.633zm-3.99 1.644h15.157c.557 0 1.009.408 1.009.91 0 .504-.452.911-1.01.911H2.382c-.557 0-1.009-.407-1.009-.91 0-.503.452-.91 1.01-.91z"/><path
      d="M12.9 9c-.298 0-.54.214-.54.478v9.044c0 .264.242.478.54.478.298 0 .54-.214.54-.478V9.478c0-.264-.242-.478-.54-.478zM6.54 9c-.298 0-.54.214-.54.478v9.044c0 .264.242.478.54.478.298 0 .54-.214.54-.478V9.478c0-.264-.242-.478-.54-.478zM9.78 9c-.298 0-.54.214-.54.478v9.044c0 .264.242.478.54.478.298 0 .54-.214.54-.478V9.478c0-.264-.242-.478-.54-.478z"/></g>
  </svg>
  <svg width="20" height="22" id="icon_delete_selected" y="142">
    <defs>
      <linearGradient x1="9.5%" y1="0%" x2="90.5%" y2="100%" id="icon_delete_selected-a"><stop stop-color="#24B54F" offset="0%"/><stop stop-color="#44A0A3" offset="100%"/></linearGradient>
    </defs><path
      d="M4.592 8.43c-1.04-.248-1.713-1.155-1.574-2.117.14-.962 1.048-1.682 2.123-1.682h2.87v-.633a1.894 1.894 0 0 1 .647-1.418A2.331 2.331 0 0 1 10.231 2h4.978a2.331 2.331 0 0 1 1.573.58c.417.376.65.887.647 1.418v.633h2.87c1.075 0 1.984.72 2.123 1.682.139.962-.535 1.869-1.574 2.118v12.463c0 .736-.3 1.428-.822 1.924-.52.498-1.245.78-2.003.782H7.417a2.91 2.91 0 0 1-2.003-.782 2.646 2.646 0 0 1-.822-1.924V8.43zm.55-2.788c-.558 0-1.01.408-1.01.91 0 .504.452.911 1.01.911h15.157c.557 0 1.009-.407 1.009-.91 0-.503-.452-.91-1.01-.91H5.142zM15.9 10c-.298 0-.54.214-.54.478v9.044c0 .264.242.478.54.478.298 0 .54-.214.54-.478v-9.044c0-.264-.242-.478-.54-.478zm-6.36 0c-.298 0-.54.214-.54.478v9.044c0 .264.242.478.54.478.298 0 .54-.214.54-.478v-9.044c0-.264-.242-.478-.54-.478zm3.24 0c-.298 0-.54.214-.54.478v9.044c0 .264.242.478.54.478.298 0 .54-.214.54-.478v-9.044c0-.264-.242-.478-.54-.478z"
      transform="translate(-3 -2)"
      fill="url(#icon_delete_selected-a)"
      fill-rule="nonzero"/></svg>
  <svg width="17" height="21" id="icon_download" y="164">
    <g fill="none" fill-rule="evenodd"><path d="M1.016 19.5h14.968" stroke="#848484" stroke-linecap="round" stroke-linejoin="round" stroke-width="1.3"/><path
      d="M8.937 16.428c-.187.208-.615.262-.925-.026l-6.424-6.18a.59.59 0 0 1 0-.862.684.684 0 0 1 .94 0l4.624 4.447.677.65V.617c0-.338.289-.616.655-.616.367 0 .656.278.656.616v13.847l5.301-5.098c.26-.25.681-.25.94 0a.59.59 0 0 1 0 .862l-6.424 6.18-.02.02z"
      fill="#848484"
      fill-rule="nonzero"/></g>
  </svg>
  <svg width="22" height="21" id="icon_edit" y="185"><path
    d="M5.639 10.551s0 .052 0 0c0 0 .053 0 0 0zM20.706 20.76H.686c-.315 0-.526-.205-.526-.513 0-.308.21-.513.527-.513h20.02c.315 0 .526.205.526.513 0 .308-.21.513-.527.513zm0-2.052H9.17c-.316 0-.527-.205-.527-.513 0-.308.21-.513.527-.513h11.537c.316 0 .527.205.527.513 0 .308-.21.513-.527.513zm-.105-16.006c.421.41.685.975.632 1.54 0 .564-.21 1.128-.632 1.538l-8.219 8.106-1.633 1.59a.29.29 0 0 1-.263.154h-.053l-5.268.923H5.06a.484.484 0 0 1-.37-.154.408.408 0 0 1-.157-.461l1-5.079c0-.102.053-.205.106-.256l.053-.052 1.58-1.59 7.165-6.926 1.16-1.128c.42-.462 1-.667 1.58-.667.58 0 1.159.257 1.58.667l1.844 1.795zM5.691 15.373l3.53-.615-2.844-2.77-.685 3.386zm4.637-1.025l.895-.873-3.53-3.437-.895.872 3.53 3.438zm1.633-1.59l6.322-6.208-3.53-3.437L8.431 9.32l3.53 3.437zm7.902-7.696c.211-.205.37-.513.37-.82 0-.308-.159-.616-.37-.821L18.02 1.625a1.308 1.308 0 0 0-1.686 0l-.79.77 3.53 3.437.79-.77z"
    fill="#848484"
    fill-rule="nonzero"/></svg>
  <svg width="22" height="21" id="icon_edit_selected" y="206">
    <defs>
      <linearGradient x1="0%" y1="2.621%" y2="97.379%" id="icon_edit_selected-a"><stop stop-color="#24B54F" offset="0%"/><stop stop-color="#44A0A3" offset="100%"/></linearGradient>
    </defs><path
      d="M7.479 13.311s0 .052 0 0c0 0 .053 0 0 0zM22.546 23.52H2.526c-.315 0-.526-.205-.526-.513 0-.308.21-.513.527-.513h20.02c.315 0 .526.205.526.513 0 .308-.21.513-.527.513zm0-2.052H11.01c-.316 0-.527-.205-.527-.513 0-.308.21-.513.527-.513h11.537c.316 0 .527.205.527.513 0 .308-.21.513-.527.513zm-.105-16.006c.421.41.685.975.632 1.54 0 .564-.21 1.128-.632 1.538l-8.219 8.106-1.633 1.59a.29.29 0 0 1-.263.154h-.053l-5.268.923H6.9a.484.484 0 0 1-.37-.153.408.408 0 0 1-.157-.462l1-5.079c0-.102.053-.205.106-.256l.053-.052 1.58-1.59 7.165-6.926 1.16-1.128c.42-.462 1-.667 1.58-.667.58 0 1.159.256 1.58.667l1.844 1.795zM12.168 17.108l.895-.873-3.53-3.437-.895.872 3.53 3.438zm9.535-9.286c.211-.205.37-.513.37-.82 0-.308-.159-.616-.37-.821L19.86 4.385a1.308 1.308 0 0 0-1.686 0l-.79.77 3.53 3.437.79-.77z"
      transform="translate(-2 -3)"
      fill="url(#icon_edit_selected-a)"
      fill-rule="nonzero"/></svg>
  <svg width="24" height="24" id="icon_help" y="227">
    <g transform="translate(1 1)" fill="none" fill-rule="evenodd">
      <g fill="#848484" fill-rule="nonzero"><path
        d="M10.705 14.977c-.52 0-.943.404-.943.9 0 .497.423.9.943.9s.943-.404.943-.9-.423-.9-.943-.9zM10.773 4.4c-2.16 0-3.953 1.324-4.17 3.081a.432.432 0 0 0 .152.378c.12.108.292.17.472.17h.04c.337 0 .625-.216.67-.502.184-1.162 1.403-2.038 2.837-2.038 1.576 0 2.859 1.05 2.859 2.34 0 .625-.298 1.213-.838 1.655-.086.07-.22.16-.382.268-.8.53-2.138 1.416-2.292 3.225a.447.447 0 0 0 .164.377c.12.105.29.165.468.165h.04c.342 0 .632-.225.661-.512.134-1.307 1.094-1.944 1.813-2.421.18-.12.336-.223.47-.332.791-.649 1.227-1.51 1.227-2.425 0-1.89-1.88-3.429-4.19-3.429z"/></g><circle stroke="#848484" stroke-width="1.2" cx="11" cy="11" r="11"/></g>
  </svg>
  <svg width="22" height="22" id="icon_help_selected" y="251">
    <defs>
      <linearGradient x1="0%" y1="0%" y2="100%" id="icon_help_selected-a"><stop stop-color="#24B54F" offset="0%"/><stop stop-color="#44A0A3" offset="100%"/></linearGradient>
    </defs><path
      d="M13 24C6.925 24 2 19.075 2 13S6.925 2 13 2s11 4.925 11 11-4.925 11-11 11zm-.295-7.023c-.52 0-.943.404-.943.9 0 .497.423.9.943.9s.943-.404.943-.9-.423-.9-.943-.9zM12.773 6.4c-2.16 0-3.953 1.324-4.17 3.081a.432.432 0 0 0 .152.378c.12.108.292.17.472.17h.04c.337 0 .625-.216.67-.502.184-1.162 1.403-2.038 2.837-2.038 1.576 0 2.859 1.05 2.859 2.34 0 .625-.298 1.213-.838 1.655-.086.07-.22.16-.382.268-.8.53-2.138 1.416-2.292 3.225a.447.447 0 0 0 .164.377c.12.105.29.165.468.165h.04c.342 0 .632-.225.661-.512.134-1.307 1.094-1.944 1.813-2.421.18-.12.336-.223.47-.332.791-.649 1.227-1.51 1.227-2.425 0-1.89-1.88-3.429-4.19-3.429z"
      transform="translate(-2 -2)"
      fill="url(#icon_help_selected-a)"
      fill-rule="evenodd"/></svg>
  <svg width="26" height="22" id="icon_insights" y="273">
    <g stroke-width=".3" fill-rule="nonzero" fill="#848484" stroke="#848484"><path
      d="M24.938 10.787A14.03 14.03 0 0 0 13.4 4.213V1h-.8v3.213a14.03 14.03 0 0 0-11.538 6.574.4.4 0 0 0 0 .426A14.03 14.03 0 0 0 12.6 17.787V21h.8v-3.213a14.03 14.03 0 0 0 11.538-6.574.4.4 0 0 0 0-.426zM1.876 11a13.24 13.24 0 0 1 6.892-5.313A6.786 6.786 0 0 0 6.22 10.6H3v.8h3.22a6.786 6.786 0 0 0 2.548 4.913A13.24 13.24 0 0 1 1.876 11zM12.6 14.6v2.38a6 6 0 0 1-5.58-5.58H9.4v-.8H7.02a6 6 0 0 1 5.58-5.58V7.4h.8V5.02a6 6 0 0 1 5.58 5.58H16.6v.8h2.38a6 6 0 0 1-5.58 5.58V14.6h-.8zM24.124 11a13.24 13.24 0 0 1-6.892 5.313A6.786 6.786 0 0 0 19.78 11.4H23v-.8h-3.22a6.786 6.786 0 0 0-2.548-4.913A13.24 13.24 0 0 1 24.124 11z"/><path
      d="M13 8a3 3 0 1 0 0 6 3 3 0 0 0 0-6zm0 5.143a2.143 2.143 0 1 1 0-4.286 2.143 2.143 0 0 1 0 4.286zM3.444 1A.444.444 0 0 0 3 1.444V5h.889V1.889H7V1H3.444zM22.556 1H19v.889h3.111V5H23V1.444A.444.444 0 0 0 22.556 1zM22.111 17v3.111H19V21h3.556a.444.444 0 0 0 .444-.444V17h-.889zM3.889 20.111V17H3v3.556c0 .245.199.444.444.444H7v-.889H3.889z"/></g>
  </svg>
  <svg width="26" height="22" id="icon_insights_selected" y="295">
    <defs>
      <linearGradient x1="0%" y1="15.278%" y2="84.722%" id="icon_insights_selected-a"><stop stop-color="#24B54F" offset="0%"/><stop stop-color="#44A0A3" offset="100%"/></linearGradient>
      <linearGradient x1="0%" y1="0%" y2="100%" id="icon_insights_selected-b"><stop stop-color="#24B54F" offset="0%"/><stop stop-color="#44A0A3" offset="100%"/></linearGradient>
    </defs>
    <g stroke-width=".3" fill-rule="nonzero" fill="none"><path
      d="M23.938 9.787A14.03 14.03 0 0 0 12.4 3.213V0h-.8v3.213A14.03 14.03 0 0 0 .062 9.787a.4.4 0 0 0 0 .426A14.03 14.03 0 0 0 11.6 16.787V20h.8v-3.213a14.03 14.03 0 0 0 11.538-6.574.4.4 0 0 0 0-.426zM11.6 13.6v2.38a6 6 0 0 1-5.58-5.58H8.4v-.8H6.02a6 6 0 0 1 5.58-5.58V6.4h.8V4.02a6 6 0 0 1 5.58 5.58H15.6v.8h2.38a6 6 0 0 1-5.58 5.58V13.6h-.8z"
      stroke="url(#icon_insights_selected-a)"
      fill="url(#icon_insights_selected-a)"
      transform="translate(1 1)"/><path
      d="M12 7a3 3 0 1 0 0 6 3 3 0 0 0 0-6zM2.444 0A.444.444 0 0 0 2 .444V4h.889V.889H6V0H2.444zM21.556 0H18v.889h3.111V4H22V.444A.444.444 0 0 0 21.556 0zM21.111 16v3.111H18V20h3.556a.444.444 0 0 0 .444-.444V16h-.889zM2.889 19.111V16H2v3.556c0 .245.199.444.444.444H6v-.889H2.889z"
      stroke="url(#icon_insights_selected-b)"
      fill="url(#icon_insights_selected-b)"
      transform="translate(1 1)"/></g>
  </svg>
  <svg width="22" height="20" id="icon_library" y="317">
    <g fill="none" fill-rule="evenodd"><path
      d="M5.072 11.082h.002v.456l.26-.294L8.312 8.29a1.464 1.464 0 0 1 2.057 0l1.106 1.098.22-.01 3.399-4.048c.275-.328.679-.517 1.108-.52.437-.024.812.156 1.112.507l3.35 3.877.263.305V1.893a.834.834 0 0 0-.836-.831H5.909a.834.834 0 0 0-.837.831v9.189zM4.038 12.71L4 12.146V1.893C4 .849 4.856 0 5.909 0h14.18c1.053 0 1.909.85 1.909 1.893v10.442a1.903 1.903 0 0 1-1.908 1.893H5.909a1.908 1.908 0 0 1-1.871-1.518zm16.851-1.617l-4.392-5.086a.342.342 0 0 0-.097-.08.408.408 0 0 0-.148-.046c-.147-.007-.253.033-.334.129l-3.88 4.622a.537.537 0 0 1-.791.036L9.609 9.042c-.175-.173-.365-.173-.54 0l-3.723 3.694.006.22c.152.134.349.21.557.21h14.18a.834.834 0 0 0 .837-.831V11.19l-.037-.098zm-4.502 8.583c-.163 0-.327-.021-.487-.063l-14.147-3.76a1.91 1.91 0 0 1-1.35-2.318l1.555-5.919a.534.534 0 0 1 .654-.38.53.53 0 0 1 .384.648l-1.555 5.92a.843.843 0 0 0 .594 1.024l14.14 3.759a.832.832 0 0 0 1.017-.584l.484-1.936a.538.538 0 0 1 .65-.388.53.53 0 0 1 .391.642l-.485 1.943a1.908 1.908 0 0 1-1.845 1.412z"
      fill="#848484"/><circle stroke="#848484" stroke-width=".8" cx="7.841" cy="3.5" r="1.5"/></g>
  </svg>
  <svg width="22" height="20" id="icon_library_selected" y="337">
    <g fill="none" fill-rule="evenodd"><path
      d="M5.072 11.082h.002v.456l.26-.294L8.312 8.29a1.464 1.464 0 0 1 2.057 0l1.106 1.098.22-.01 3.399-4.048c.275-.328.679-.517 1.108-.52.437-.024.812.156 1.112.507l3.35 3.877.263.305V1.893a.834.834 0 0 0-.836-.831H5.909a.834.834 0 0 0-.837.831v9.189zM4.038 12.71L4 12.146V1.893C4 .849 4.856 0 5.909 0h14.18c1.053 0 1.909.85 1.909 1.893v10.442a1.903 1.903 0 0 1-1.908 1.893H5.909a1.908 1.908 0 0 1-1.871-1.518zm16.851-1.617l-4.392-5.086a.342.342 0 0 0-.097-.08.408.408 0 0 0-.148-.046c-.147-.007-.253.033-.334.129l-3.88 4.622a.537.537 0 0 1-.791.036L9.609 9.042c-.175-.173-.365-.173-.54 0l-3.723 3.694.006.22c.152.134.349.21.557.21h14.18a.834.834 0 0 0 .837-.831V11.19l-.037-.098zm-4.502 8.583c-.163 0-.327-.021-.487-.063l-14.147-3.76a1.91 1.91 0 0 1-1.35-2.318l1.555-5.919a.534.534 0 0 1 .654-.38.53.53 0 0 1 .384.648l-1.555 5.92a.843.843 0 0 0 .594 1.024l14.14 3.759a.832.832 0 0 0 1.017-.584l.484-1.936a.538.538 0 0 1 .65-.388.53.53 0 0 1 .391.642l-.485 1.943a1.908 1.908 0 0 1-1.845 1.412z"
      fill="#24B54F"/><circle stroke="#24B54F" stroke-width=".8" cx="7.841" cy="3.5" r="1.5"/></g>
  </svg>
  <svg width="22" height="22" id="icon_logout" y="357"><path
    d="M6.05 3.796l.191-.107c.252-.14.392-.358.392-.618 0-.39-.343-.71-.765-.71-.15 0-.307.06-.516.201C2.05 4.438 0 7.806 0 11.542 0 17.302 4.932 22 11 22c6.078 0 11-4.68 11-10.458 0-3.742-2.055-7.107-5.454-9.034-.094-.09-.26-.147-.443-.147-.429 0-.765.326-.765.71 0 .26.14.479.391.618l.192.107v.03c2.791 1.628 4.549 4.535 4.549 7.716 0 4.986-4.253 9.037-9.47 9.037-5.227 0-9.47-4.032-9.47-9.037 0-3.208 1.73-6.09 4.52-7.716v-.03zM11 12.252c.429 0 .765-.326.765-.71V.71c0-.4-.325-.71-.765-.71s-.765.31-.765.71v10.832c0 .4.325.71.765.71z"
    fill="#848484"
    fill-rule="nonzero"/></svg>
  <svg width="24" height="24" id="icon_profile" y="379"><path
    d="M23 12c0-6.065-4.935-11-11-11S1 5.935 1 12c0 3.204 1.378 6.091 3.57 8.103l-.01.01.357.3c.023.02.048.036.071.055.19.157.386.306.586.45a11.202 11.202 0 0 0 .852.558l.148.086c.245.14.496.271.752.392l.057.026a10.901 10.901 0 0 0 3.613.972l.108.008c.295.024.594.04.896.04.3 0 .595-.016.889-.04.037-.002.074-.004.111-.008.294-.026.585-.065.872-.114l.074-.014a10.9 10.9 0 0 0 2.623-.822l.092-.042a11.056 11.056 0 0 0 1.532-.875c.074-.05.147-.104.22-.157.175-.126.348-.256.515-.393.038-.03.078-.056.114-.087l.366-.305-.01-.01A10.972 10.972 0 0 0 23 12zM1.8 12C1.8 6.376 6.376 1.8 12 1.8S22.2 6.376 22.2 12c0 3.03-1.33 5.756-3.436 7.625a2.998 2.998 0 0 0-.357-.215l-3.387-1.693a.887.887 0 0 1-.492-.797v-1.183c.078-.097.16-.206.246-.327.439-.619.79-1.308 1.047-2.049.507-.24.834-.745.834-1.315v-1.418c0-.347-.127-.684-.355-.948V7.813c.02-.207.094-1.379-.753-2.345C14.81 4.626 13.617 4.2 12 4.2c-1.616 0-2.81.426-3.547 1.267-.847.967-.774 2.138-.753 2.346V9.68c-.227.264-.355.6-.355.947v1.418c0 .44.198.851.536 1.129.324 1.269.991 2.23 1.237 2.555v1.158a.892.892 0 0 1-.464.783L5.49 19.395c-.101.055-.201.119-.301.19A10.176 10.176 0 0 1 1.8 12zm16.184 8.253c-.14.101-.283.2-.427.294l-.2.128c-.189.117-.381.228-.577.332l-.13.067c-.45.23-.917.43-1.396.59l-.05.018c-.251.083-.505.157-.762.22h-.002c-.26.065-.522.118-.786.162-.007 0-.014.002-.022.004-.248.04-.498.07-.75.091l-.133.01c-.249.019-.498.031-.749.031-.254 0-.506-.012-.758-.031l-.13-.01a10.345 10.345 0 0 1-.756-.093l-.034-.006a10.162 10.162 0 0 1-1.556-.389l-.047-.016c-.252-.085-.5-.18-.745-.285l-.005-.002c-.231-.1-.458-.21-.682-.327l-.088-.045a10.28 10.28 0 0 1-.775-.462c-.182-.119-.361-.242-.536-.373l-.053-.042.039-.021 3.162-1.726c.544-.296.882-.866.882-1.485v-1.441l-.092-.111c-.009-.01-.874-1.062-1.2-2.487l-.037-.158-.136-.088a.663.663 0 0 1-.308-.557v-1.418c0-.186.079-.36.223-.49l.132-.119V7.79l-.004-.052c0-.01-.119-.972.559-1.744C9.633 5.334 10.625 5 12 5c1.37 0 2.358.332 2.938.986.677.765.566 1.745.566 1.753l-.004 2.28.132.12c.144.129.223.303.223.489v1.418a.668.668 0 0 1-.473.63l-.198.06-.064.199a7.4 7.4 0 0 1-.999 2.013c-.105.148-.207.279-.294.38l-.1.112v1.48c0 .645.359 1.225.936 1.513l3.387 1.693.064.033c-.043.033-.087.063-.13.094z"
    stroke-width=".4"
    fill-rule="nonzero"
    fill="#848484"
    stroke="#848484"/></svg>
  <svg width="24" height="24" id="icon_profile_selected" y="403">
    <defs>
      <linearGradient x1="0%" y1="0%" y2="100%" id="icon_profile_selected-a"><stop stop-color="#24B54F" offset="0%"/><stop stop-color="#44A0A3" offset="100%"/></linearGradient>
    </defs><path
      d="M22 11c0-6.065-4.935-11-11-11S0 4.935 0 11c0 3.204 1.378 6.091 3.57 8.103l-.01.01.357.3c.023.02.048.036.071.055.19.157.386.306.586.45a11.202 11.202 0 0 0 .852.558l.148.086c.245.14.496.271.752.392l.057.026a10.901 10.901 0 0 0 3.613.972l.108.008c.295.024.594.04.896.04.3 0 .595-.016.889-.04.037-.002.074-.004.111-.008.294-.026.585-.065.872-.114l.074-.014a10.9 10.9 0 0 0 2.623-.822l.092-.042a11.056 11.056 0 0 0 1.532-.875c.074-.05.147-.104.22-.157.175-.126.348-.256.515-.393.038-.03.078-.056.114-.087l.366-.305-.01-.01A10.972 10.972 0 0 0 22 11zM.8 11C.8 5.376 5.376.8 11 .8S21.2 5.376 21.2 11c0 3.03-1.33 5.756-3.436 7.625a2.998 2.998 0 0 0-.357-.215l-3.387-1.693a.887.887 0 0 1-.492-.797v-1.183c.078-.097.16-.206.246-.327.439-.619.79-1.308 1.047-2.049.507-.24.834-.745.834-1.315V9.628c0-.347-.127-.684-.355-.948V6.813c.02-.207.094-1.379-.753-2.345C13.81 3.626 12.617 3.2 11 3.2c-1.616 0-2.81.426-3.547 1.267-.847.967-.774 2.138-.753 2.346V8.68c-.227.264-.355.6-.355.947v1.418c0 .44.198.851.536 1.129.324 1.269.991 2.23 1.237 2.555v1.158a.892.892 0 0 1-.464.783L4.49 18.395c-.101.055-.201.119-.301.19A10.176 10.176 0 0 1 .8 11z"
      stroke-width=".4"
      fill-rule="nonzero"
      transform="translate(1 1)"
      fill="url(#icon_profile_selected-a)"
      stroke="url(#icon_profile_selected-a)"/></svg>
  <svg width="24" height="24" id="icon_settings" y="427">
    <g stroke-width=".4" fill-rule="nonzero" fill="#848484" stroke="#848484"><path
      d="M21.867 9.556H19.81a.768.768 0 0 1-.73-.488.769.769 0 0 1 .171-.861l1.455-1.455c.214-.214.332-.499.332-.801 0-.303-.118-.587-.332-.802l-1.854-1.854a1.16 1.16 0 0 0-1.603 0l-1.455 1.454a.768.768 0 0 1-.86.172.768.768 0 0 1-.489-.73V2.133c0-.625-.508-1.133-1.132-1.133h-2.624c-.624 0-1.132.508-1.132 1.133V4.19c0 .33-.183.603-.488.73a.768.768 0 0 1-.861-.172L6.752 3.295a1.16 1.16 0 0 0-1.603 0L3.295 5.149a1.126 1.126 0 0 0-.332.802c0 .302.118.586.332.8L4.75 8.208a.77.77 0 0 1 .17.86.768.768 0 0 1-.73.489H2.134c-.625 0-1.133.508-1.133 1.132v2.623c0 .625.508 1.133 1.133 1.133H4.19c.33 0 .603.183.73.488a.769.769 0 0 1-.171.861l-1.455 1.455a1.126 1.126 0 0 0-.332.801c0 .303.118.587.332.802l1.854 1.854a1.16 1.16 0 0 0 1.603 0l1.455-1.455a.769.769 0 0 1 .86-.17c.306.126.489.398.489.73v2.057c0 .625.508 1.133 1.132 1.133h2.623c.625 0 1.133-.508 1.133-1.133V19.81c0-.33.182-.603.488-.73a.768.768 0 0 1 .861.171l1.455 1.455a1.16 1.16 0 0 0 1.602 0l1.855-1.854c.214-.214.332-.5.332-.802 0-.302-.118-.586-.332-.8l-1.455-1.456a.77.77 0 0 1-.171-.86.768.768 0 0 1 .73-.489h2.058c.625 0 1.133-.508 1.133-1.132v-2.624c0-.624-.508-1.132-1.133-1.132zm.318 3.756a.318.318 0 0 1-.318.318H19.81c-.661 0-1.23.38-1.483.99a1.58 1.58 0 0 0 .348 1.75l1.455 1.455a.318.318 0 0 1 0 .45l-1.855 1.854a.318.318 0 0 1-.45 0l-1.454-1.455a1.581 1.581 0 0 0-1.75-.348 1.58 1.58 0 0 0-.99 1.483v2.058a.318.318 0 0 1-.318.318h-2.624a.318.318 0 0 1-.318-.318V19.81c0-.661-.38-1.23-.99-1.483a1.583 1.583 0 0 0-1.75.348l-1.455 1.455a.318.318 0 0 1-.45 0l-1.854-1.855a.318.318 0 0 1 0-.45l1.455-1.455a1.58 1.58 0 0 0 .348-1.749 1.58 1.58 0 0 0-1.483-.99H2.133a.318.318 0 0 1-.318-.318v-2.624c0-.175.142-.318.318-.318H4.19c.661 0 1.23-.38 1.483-.99a1.58 1.58 0 0 0-.348-1.75L3.87 6.175a.318.318 0 0 1 0-.45l1.855-1.854a.318.318 0 0 1 .45 0L7.63 5.325a1.58 1.58 0 0 0 1.75.348c.61-.252.99-.82.99-1.482V2.133c0-.176.143-.318.318-.318h2.623c.176 0 .319.142.319.318V4.19c0 .661.38 1.23.99 1.483a1.58 1.58 0 0 0 1.75-.348l1.455-1.455a.318.318 0 0 1 .45 0l1.854 1.855a.318.318 0 0 1 0 .45L18.674 7.63a1.58 1.58 0 0 0-.348 1.749c.253.611.822.99 1.483.99h2.058c.176 0 .318.143.318.318v2.624z"/><path d="M12 8.333A3.67 3.67 0 0 0 8.333 12 3.67 3.67 0 0 0 12 15.667 3.67 3.67 0 0 0 15.667 12 3.67 3.67 0 0 0 12 8.333zm0 6.519A2.856 2.856 0 0 1 9.148 12 2.856 2.856 0 0 1 12 9.148 2.856 2.856 0 0 1 14.852 12 2.856 2.856 0 0 1 12 14.852z"/></g>
  </svg>
  <svg width="24" height="24" id="icon_settings_selected" y="451">
    <defs>
      <linearGradient x1="0%" y1="0%" y2="100%" id="icon_settings_selected-a"><stop stop-color="#24B54F" offset="0%"/><stop stop-color="#44A0A3" offset="100%"/></linearGradient>
    </defs><path
      d="M20.867 8.556c.625 0 1.133.508 1.133 1.132v2.624c0 .624-.508 1.132-1.133 1.132H18.81a.768.768 0 0 0-.73.488.77.77 0 0 0 .17.861l1.456 1.455c.214.215.332.499.332.801 0 .303-.118.588-.332.802l-1.855 1.854a1.16 1.16 0 0 1-1.602 0l-1.455-1.455a.768.768 0 0 0-.861-.17.768.768 0 0 0-.488.73v2.057c0 .625-.508 1.133-1.133 1.133H9.688a1.134 1.134 0 0 1-1.132-1.133V18.81a.768.768 0 0 0-.488-.73.769.769 0 0 0-.861.171l-1.455 1.455a1.16 1.16 0 0 1-1.603 0l-1.854-1.854a1.127 1.127 0 0 1-.332-.802c0-.302.118-.587.332-.8l1.455-1.456a.769.769 0 0 0 .17-.86.768.768 0 0 0-.73-.489H1.134A1.134 1.134 0 0 1 0 12.311V9.688c0-.624.508-1.132 1.133-1.132H3.19c.33 0 .604-.183.73-.488a.77.77 0 0 0-.171-.861L2.295 5.752a1.126 1.126 0 0 1-.332-.801c0-.303.118-.588.332-.802l1.854-1.854a1.16 1.16 0 0 1 1.603 0l1.455 1.454a.768.768 0 0 0 .86.172.768.768 0 0 0 .489-.73V1.133C8.556.508 9.064 0 9.688 0h2.624c.624 0 1.132.508 1.132 1.133V3.19c0 .33.183.603.488.73a.768.768 0 0 0 .861-.172l1.455-1.454a1.16 1.16 0 0 1 1.603 0l1.854 1.854c.214.215.332.5.332.802 0 .302-.118.587-.332.8L18.25 7.208a.769.769 0 0 0-.17.86c.126.306.398.489.73.489h2.057zM11 7.333A3.67 3.67 0 0 0 7.333 11 3.67 3.67 0 0 0 11 14.667 3.67 3.67 0 0 0 14.667 11 3.67 3.67 0 0 0 11 7.333z"
      stroke-width=".4"
      fill-rule="nonzero"
      transform="translate(1 1)"
      fill="url(#icon_settings_selected-a)"
      stroke="url(#icon_settings_selected-a)"/></svg>
  <svg width="22" height="21" id="icon_star" y="475"><path
    d="M21.523 9.517c.433-.42.585-1.037.399-1.611a1.567 1.567 0 0 0-1.274-1.07l-5.327-.771a.696.696 0 0 1-.524-.38L12.415.876A1.569 1.569 0 0 0 11 0c-.604 0-1.147.336-1.415.876l-2.382 4.81a.696.696 0 0 1-.524.379l-5.327.771a1.565 1.565 0 0 0-1.274 1.07 1.558 1.558 0 0 0 .4 1.611l3.854 3.743c.164.16.24.39.2.615l-.91 5.285a1.56 1.56 0 0 0 .628 1.537 1.57 1.57 0 0 0 1.662.12l4.764-2.495a.7.7 0 0 1 .648 0l4.765 2.495a1.58 1.58 0 0 0 1.661-.12c.49-.354.73-.943.628-1.537l-.91-5.285a.693.693 0 0 1 .2-.614l3.855-3.744z"
    fill="#FFF"
    fill-rule="nonzero"/></svg>
  <svg width="22" height="21" id="icon_star_selected" y="496">
    <defs>
      <linearGradient x1="0%" y1="4.442%" y2="95.558%" id="icon_star_selected-a"><stop stop-color="#24B54F" offset="0%"/><stop stop-color="#44A0A3" offset="100%"/></linearGradient>
    </defs><path
      d="M23.523 12.517c.433-.42.585-1.037.399-1.611a1.567 1.567 0 0 0-1.274-1.07l-5.327-.771a.696.696 0 0 1-.524-.38l-2.382-4.809A1.569 1.569 0 0 0 13 3c-.604 0-1.147.336-1.415.876l-2.382 4.81a.696.696 0 0 1-.524.379l-5.327.771a1.565 1.565 0 0 0-1.274 1.07 1.558 1.558 0 0 0 .4 1.611l3.854 3.743c.164.16.24.39.2.615l-.91 5.285a1.56 1.56 0 0 0 .628 1.537 1.57 1.57 0 0 0 1.662.12l4.764-2.495a.7.7 0 0 1 .648 0l4.765 2.495a1.58 1.58 0 0 0 1.661-.12c.49-.354.73-.943.628-1.537l-.91-5.285a.693.693 0 0 1 .2-.614l3.855-3.744z"
      transform="translate(-2 -3)"
      fill="url(#icon_star_selected-a)"
      fill-rule="nonzero"/></svg>
  <svg width="24" height="24" id="icon_upload" y="517">
    <g stroke-width=".3" fill-rule="nonzero" fill="#848484" stroke="#848484"><path d="M12 23c6.065 0 11-4.935 11-11S18.065 1 12 1 1 5.935 1 12s4.935 11 11 11zm0-20.9c5.46 0 9.9 4.44 9.9 9.9s-4.44 9.9-9.9 9.9-9.9-4.44-9.9-9.9S6.54 2.1 12 2.1z"/><path d="M9.02 10.534l2.366-2.426v9.27c0 .344.271.622.607.622a.614.614 0 0 0 .606-.622V8.113l2.366 2.426a.593.593 0 0 0 .858 0 .627.627 0 0 0 0-.874l-3.397-3.483a.59.59 0 0 0-.852 0L8.177 9.665a.627.627 0 0 0 0 .874.583.583 0 0 0 .843-.005z"/></g>
  </svg>
  <svg width="23" height="20" id="icon_uploadImage" y="541">
    <defs>
      <linearGradient x1="-41.876%" y1="-12.204%" x2="90.566%" y2="81.313%" id="icon_uploadImage-a"><stop stop-color="#FCCC02" offset="0%"/><stop stop-color="#FF6333" offset="100%"/></linearGradient>
    </defs><path
      d="M4.577 6.097C3.707 6.097 3 5.404 3 4.548 3 3.693 3.706 3 4.577 3s1.577.693 1.577 1.548c0 .856-.706 1.549-1.577 1.549zm17.021 6.075a4.508 4.508 0 0 1 0 6.452 4.678 4.678 0 0 1-3.286 1.333c-1.117 0-2.124-.409-2.935-1.054H3.09a3.09 3.09 0 0 1-2.19-.881A3.067 3.067 0 0 1 0 15.87V3.032c0-.838.329-1.591.898-2.15A3.184 3.184 0 0 1 3.088 0h12.705a3.09 3.09 0 0 1 2.19.882c.548.559.899 1.312.899 2.15v7.871c1.03.13 1.971.58 2.716 1.269zM1.161 3.032v8.538l3.46-3.441a.596.596 0 0 1 .833 0l3.308 3.269 4.885-4.817a.596.596 0 0 1 .832 0l3.242 3.182v-6.71c0-.515-.22-.988-.57-1.333a1.94 1.94 0 0 0-1.358-.559H3.09a1.94 1.94 0 0 0-1.359.56c-.35.322-.569.795-.569 1.311zm1.906 14.774h11.237c-.11-.15-.197-.344-.285-.516v-.021a7.464 7.464 0 0 1-.219-.645c-.022-.086-.044-.15-.066-.237a4.645 4.645 0 0 1-.11-.946c0-1.269.526-2.409 1.359-3.226.153-.172.328-.323.526-.452.043-.021.065-.043.11-.064.065-.043.109-.065.174-.108l.329-.193c.066-.043.131-.065.219-.108a.66.66 0 0 1 .175-.086c.088-.021.175-.064.263-.086.11-.043.197-.064.285-.086l.197-.064-3.198-3.162-4.885 4.818c-.24.215-.613.215-.832 0L5.038 9.376l-3.877 3.828v2.667c0 .516.219.99.548 1.333.35.344.832.56 1.358.56v.042zm17.677 0c.613-.623 1.007-1.462 1.007-2.387a3.33 3.33 0 0 0-1.007-2.408 3.55 3.55 0 0 0-2.454-.99c-.963 0-1.84.366-2.453.99-.613.623-1.007 1.462-1.007 2.408 0 .237.021.473.065.689.022.086.066.193.088.28.022.128.066.257.11.365.043.086.087.15.13.236.067.13.132.258.22.366.066.064.131.15.197.215.088.086.175.193.263.28a3.49 3.49 0 0 0 2.387.946c.964 0 1.819-.366 2.454-.99zm-2.037-4.71l1.358 1.334c.219.237.219.602 0 .817-.241.215-.614.215-.833 0l-.35-.344v2.366c0 .322-.263.58-.592.58a.584.584 0 0 1-.591-.58v-2.366l-.35.344c-.241.215-.614.215-.833 0-.219-.236-.219-.602 0-.817l1.358-1.333a.518.518 0 0 1 .197-.13c.066-.02.132-.042.198-.042h.043c.066 0 .132.021.198.043a.765.765 0 0 1 .197.129z"
      fill-rule="nonzero"
      fill="url(#icon_uploadImage-a)"/></svg>
  <svg width="24" height="24" id="icon_upload_selected" y="561">
    <defs>
      <linearGradient x1="0%" y1="0%" y2="100%" id="icon_upload_selected-a"><stop stop-color="#24B54F" offset="0%"/><stop stop-color="#44A0A3" offset="100%"/></linearGradient>
    </defs>
    <g stroke-width=".3" fill-rule="nonzero" fill="none"><path d="M11 22c6.065 0 11-4.935 11-11S17.065 0 11 0 0 4.935 0 11s4.935 11 11 11z" stroke="url(#icon_upload_selected-a)" fill="url(#icon_upload_selected-a)" transform="translate(1 1)"/><path
      d="M9.02 10.534l2.366-2.426v9.27c0 .344.271.622.607.622a.614.614 0 0 0 .606-.622V8.113l2.366 2.426a.593.593 0 0 0 .858 0 .627.627 0 0 0 0-.874l-3.397-3.483a.59.59 0 0 0-.852 0L8.177 9.665a.627.627 0 0 0 0 .874.583.583 0 0 0 .843-.005z"
      stroke="#FFF"
      fill="#FFF"/></g>
  </svg>
</svg>
