<svg aria-hidden="true" style="position: absolute; width: 0; height: 0; overflow: hidden;" version="1.1" xmlns="http://www.w3.org/2000/svg" xmlns:xlink="http://www.w3.org/1999/xlink">
<defs>
<symbol id="icon-icon_edit" viewBox="0 0 34 32">
<title>icon_edit</title>
<path d="M8.593 16.078c0 0 0 0.078 0 0 0 0 0.080 0 0 0zM31.553 31.634h-30.506c-0.482 0-0.803-0.313-0.803-0.782s0.321-0.782 0.803-0.782h30.506c0.482 0 0.803 0.313 0.803 0.782s-0.321 0.782-0.803 0.782zM31.553 28.507h-17.581c-0.482 0-0.803-0.313-0.803-0.782s0.321-0.782 0.803-0.782h17.581c0.482 0 0.803 0.313 0.803 0.782s-0.321 0.782-0.803 0.782zM31.392 4.118c0.642 0.625 1.044 1.485 0.963 2.345 0 0.86-0.321 1.72-0.963 2.345l-12.523 12.351-2.489 2.423c-0.080 0.156-0.241 0.235-0.401 0.235h-0.080l-8.028 1.407c-0.080 0-0.080 0-0.161 0-0.241 0-0.401-0.078-0.562-0.235-0.241-0.156-0.321-0.469-0.241-0.704l1.525-7.739c0-0.156 0.080-0.313 0.161-0.391 0 0 0.080-0.078 0.080-0.078l2.408-2.423 12.684-12.273c0.642-0.704 1.525-1.016 2.408-1.016s1.766 0.391 2.408 1.016l2.81 2.736zM8.673 23.426l5.379-0.938-4.335-4.221-1.044 5.159zM15.738 21.863l1.365-1.329-5.379-5.238-1.365 1.329 5.379 5.238zM18.226 19.44l9.633-9.459-5.379-5.237-9.633 9.459 5.379 5.238zM30.268 7.714c0.321-0.313 0.562-0.782 0.562-1.251s-0.241-0.938-0.562-1.251l-2.81-2.736c-0.723-0.625-1.846-0.625-2.569 0l-1.204 1.173 5.379 5.238 1.204-1.173z"></path>
</symbol>
<symbol id="icon-icon_help" viewBox="0 0 32 32">
<title>icon_help</title>
<g>
<path class="works" d="M15.606 21.303c-0.694 0-1.257 0.539-1.257 1.2s0.564 1.2 1.257 1.2c0.694 0 1.257-0.538 1.257-1.2s-0.564-1.2-1.257-1.2z"></path>
<path class="works" fill="red" stroke="red" stroke-miterlimit="10" d="M15.698 7.2c-2.88 0-5.27 1.766-5.56 4.108-0.023 0.186 0.049 0.364 0.203 0.504 0.159 0.144 0.388 0.226 0.629 0.226h0.054c0.449 0 0.832-0.288 0.893-0.669 0.245-1.549 1.871-2.717 3.781-2.717 2.102 0 3.813 1.4 3.813 3.12 0 0.833-0.397 1.617-1.117 2.207-0.114 0.094-0.293 0.212-0.51 0.356-1.067 0.706-2.851 1.888-3.055 4.301-0.016 0.187 0.062 0.365 0.218 0.502 0.16 0.14 0.387 0.22 0.624 0.22h0.053c0.455 0 0.843-0.3 0.882-0.682 0.178-1.744 1.459-2.592 2.417-3.228 0.241-0.159 0.448-0.297 0.625-0.443 1.056-0.865 1.636-2.013 1.636-3.234 0.001-2.52-2.505-4.572-5.587-4.572z"></path>
</g>
<path fill="none" stroke-linejoin="miter" stroke-linecap="butt" stroke-miterlimit="4" stroke-width="1.6" d="M30.667 16c0 8.1-6.567 14.667-14.667 14.667s-14.667-6.566-14.667-14.667c0-8.1 6.566-14.667 14.667-14.667s14.667 6.566 14.667 14.667z"></path>
</symbol>
</defs>
</svg>
